{
	"asset":{
		"generator":"Khronos glTF Blender I/O v4.1.63",
		"version":"2.0"
	},
	"scene":0,
	"scenes":[
		{
			"name":"Scene",
			"nodes":[
				0
			]
		}
	],
	"nodes":[
		{
			"mesh":0,
			"name":"blue"
		}
	],
	"materials":[
		{
			"alphaMode":"BLEND",
			"doubleSided":true,
			"name":"color.003",
			"pbrMetallicRoughness":{
				"baseColorTexture":{
					"index":0
				},
				"metallicFactor":0,
				"roughnessFactor":0.5
			}
		}
	],
	"meshes":[
		{
			"name":"blue.003",
			"primitives":[
				{
					"attributes":{
						"POSITION":0,
						"NORMAL":1,
						"TEXCOORD_0":2
					},
					"indices":3,
					"material":0
				}
			]
		}
	],
	"textures":[
		{
			"sampler":0,
			"source":0
		}
	],
	"images":[
		{
			"mimeType":"image/png",
			"name":"contour_plot",
			"uri":"contour_plot.png"
		}
	],
	"accessors":[
		{
			"bufferView":0,
			"componentType":5126,
			"count":88804,
			"max":[
				100,
				54.99887466430664,
				0
			],
			"min":[
				0,
				5.001126289367676,
				-100
			],
			"type":"VEC3"
		},
		{
			"bufferView":1,
			"componentType":5126,
			"count":88804,
			"type":"VEC3"
		},
		{
			"bufferView":2,
			"componentType":5126,
			"count":88804,
			"type":"VEC2"
		},
		{
			"bufferView":3,
			"componentType":5125,
			"count":133206,
			"type":"SCALAR"
		}
	],
	"bufferViews":[
		{
			"buffer":0,
			"byteLength":1065648,
			"byteOffset":0,
			"target":34962
		},
		{
			"buffer":0,
			"byteLength":1065648,
			"byteOffset":1065648,
			"target":34962
		},
		{
			"buffer":0,
			"byteLength":710432,
			"byteOffset":2131296,
			"target":34962
		},
		{
			"buffer":0,
			"byteLength":532824,
			"byteOffset":2841728,
			"target":34963
		}
	],
	"samplers":[
		{
			"magFilter":9729,
			"minFilter":9987
		}
	],
	"buffers":[
		{
			"byteLength":3374552,
			"uri":"sattel.bin"
		}
	]
}
